# xmcd
#
# Track frame offsets:
#	150
#	16435
#	36342
#	58292
#	76050
#	93940
#	108737
#	128170
#	143282
#	166795
#
# Disc length: 2566 seconds
#
# Revision: 1
# Processed by: cddbd v1.4PL0 Copyright (c) Steve Scherf et al.
# Submitted via: audiograbber 1.80
#
DISCID=790a040a
DTITLE=James Dougherty, Jr - The Inconsiderate Few
DYEAR=1900
DGENRE=
TTITLE0=So Far
TTITLE1=Breakout
TTITLE2=Room with a View
TTITLE3=Helter Skelter
TTITLE4=It Could Have Been You
TTITLE5=Riverside Blues
TTITLE6=Quarter Movies
TTITLE7=Redneck Lovechild
TTITLE8=A Friend in Need
TTITLE9=War of the Worlds
EXTD=
EXTT0=
EXTT1=
EXTT2=
EXTT3=
EXTT4=
EXTT5=
EXTT6=
EXTT7=
EXTT8=
EXTT9=
PLAYORDER=
